<svg xmlns="http://www.w3.org/2000/svg" version="1.1" x="0" y="0" viewBox="0 0 100 100" enable-background="new 0 0 100 100" xml:space="preserve"><path class="google-path" fill-rule="evenodd" clip-rule="evenodd" fill="none" stroke="#000000" stroke-miterlimit="10" d="M50 1C22.9 1 1 22.9 1 50c0 27.1 21.9 49 49 49s49-21.9 49-49C99 22.9 77.1 1 50 1zM39.2 68.9c-10.4 0-18.9-8.5-18.9-18.9 0-10.4 8.5-18.9 18.9-18.9 5.1 0 9.4 1.9 12.7 4.9L46.7 41c-1.4-1.3-3.9-2.9-7.5-2.9 -6.5 0-11.7 5.3-11.7 11.9 0 6.6 5.3 12.3 11.7 12.3 7.5 0 10.3-4.8 10.7-7.8H38.5v-7H57c0.2 1 0.3 1.8 0.3 3C57.3 61.3 50.1 68.9 39.2 68.9zM79.5 53.5h-5v5h-6v-5h-5v-6h5v-5h6v5h5V53.5z"/></svg>
