<svg xmlns="http://www.w3.org/2000/svg" version="1.1" x="0" y="0" viewBox="0 0 100 100" enable-background="new 0 0 100 100" xml:space="preserve"><path id="newswire" fill="none" stroke="#000000" stroke-miterlimit="10" d="M50 1C22.9 1 1 22.9 1 50c0 27.1 21.9 49 49 49 27.1 0 49-21.9 49-49C99 22.9 77.1 1 50 1zM75.5 74.7c0 2.8-2.3 5-5.1 5 -2.4-0.1-4.1-1.9-4.3-2.1L34.5 39.2v35.5c0 2.8-2.7 5-5.5 5 -2.8 0-5.5-2.3-5.5-5V25.3c0-2.8 2.8-5 5.6-5 2.6 0 3.8 1.5 4.3 2.1l31.1 38.2V25.3c0-2.8 2.7-5 5.5-5 2.8 0 5.5 2.3 5.5 5V74.7z"/></svg>
