<svg xmlns="http://www.w3.org/2000/svg" version="1.1" x="0" y="0" viewBox="0 0 100 100" enable-background="new 0 0 100 100" xml:space="preserve"><path id="tumblr" fill="none" stroke="#000000" stroke-miterlimit="10" d="M50 1C22.9 1 1 22.9 1 50c0 27.1 21.9 49 49 49s49-21.9 49-49C99 22.9 77.1 1 50 1zM56.6 79.7c-12.9 0.2-18.1-9.2-18.1-15.9V44.5h-6v-7.7c9-3.2 11.4-11.3 11.9-15.9 0-0.3 0.5-0.3 0.6-0.3 0.1 0 8.5 0 8.5 0v15h12v9h-12v18.4c0 2.5 1.1 6 5.8 5.9 1.6 0 3.7-0.5 4.8-1l2.8 8.5C65.9 77.8 60.9 79.6 56.6 79.7z"/></svg>
