<svg xmlns="http://www.w3.org/2000/svg" version="1.1" x="0" y="0" viewBox="0 0 100 100" enable-background="new 0 0 100 100" xml:space="preserve"><path id="flickr" fill="none" stroke="#000000" stroke-width="1" stroke-miterlimit="10" d="M50 1C22.9 1 1 22.9 1 50c0 27.1 21.9 49 49 49s49-21.9 49-49C99 22.9 77.1 1 50 1zM33.1 62.7c-7 0-12.7-5.7-12.7-12.7 0-7 5.7-12.7 12.7-12.7 7 0 12.7 5.7 12.7 12.7C45.8 57 40.1 62.7 33.1 62.7zM66.9 62.7c-7 0-12.7-5.7-12.7-12.7 0-7 5.7-12.7 12.7-12.7 7 0 12.7 5.7 12.7 12.7C79.7 57 74 62.7 66.9 62.7z"/></svg>