<svg xmlns="http://www.w3.org/2000/svg" version="1.1" x="0" y="0" viewBox="0 0 100 100" enable-background="new 0 0 100 100" xml:space="preserve"><path id="linkedin" fill="none" stroke="#000000" stroke-miterlimit="10" d="M50 1C22.9 1 1 22.9 1 50c0 27.1 21.9 49 49 49s49-21.9 49-49C99 22.9 77.1 1 50 1zM32.5 80.5h-12v-40h12V80.5zM27.4 34.6c-3.9 0-7.1-3.2-7.1-7.1 0-3.9 3.2-7.1 7.1-7.1 3.9 0 7.1 3.2 7.1 7.1C34.6 31.4 31.4 34.6 27.4 34.6zM79.5 80.5h-12V60.4c0-4.6-0.2-10.5-6.5-10.5 -6.4 0-7.5 5-7.5 10.2v20.4h-13v-40h12v5h0.8c1.6-3 5.6-6.4 11.5-6.4 12.5 0 14.7 8.2 14.7 18.8V80.5z"/></svg>
