<svg xmlns="http://www.w3.org/2000/svg" version="1.1" x="0" y="0" viewBox="0 0 100 100" enable-background="new 0 0 100 100" xml:space="preserve"><path class="instagram-path" fill="none" stroke="#000000" stroke-width="1" stroke-miterlimit="10" d="M50 58.7c4.8 0 8.7-3.9 8.7-8.7 0-4.8-3.9-8.7-8.7-8.7 -4.8 0-8.7 3.9-8.7 8.7C41.3 54.8 45.2 58.7 50 58.7zM68.8 47.5h-2.2c-0.6 0-1.4 0-1.4 0.8s0.1 1.1 0.1 1.8c0 8.5-6.9 15.3-15.3 15.3S34.7 58.5 34.7 50c0-0.6 0-1.3 0.1-1.9 0-0.6-1-0.6-1.4-0.6h-2.1c-2.1 0-4.8 0.7-4.8 2.8V69c0 2.1 2.8 4.5 4.8 4.5h37.5c2.1 0 3.7-2.4 3.7-4.5V50.3C72.5 48.2 70.9 47.5 68.8 47.5zM72.5 31.2c0-2.1-1.7-3.7-3.7-3.7h-3.5c-2.1 0-3.7 1.7-3.7 3.7v3.5c0 2.1 1.7 3.7 3.7 3.7h3.5c2.1 0 3.7-1.7 3.7-3.7V31.2zM50 1C22.9 1 1 22.9 1 50c0 27.1 21.9 49 49 49s49-21.9 49-49C99 22.9 77.1 1 50 1zM79.5 72.2c0 4.1-3.2 8.3-7.3 8.3H27.8c-4.1 0-8.3-4.2-8.3-8.3V27.8c0-4.1 4.2-7.3 8.3-7.3h44.4c4.1 0 7.3 3.2 7.3 7.3V72.2z"/></svg>
