<svg xmlns="http://www.w3.org/2000/svg" version="1.1" x="0" y="0" viewBox="0 0 100 100" enable-background="new 0 0 100 100" xml:space="preserve"><path class="pinterest-path" fill="none" stroke="#000000" stroke-width="1" stroke-miterlimit="10" d="M50 1C22.9 1 1 22.9 1 50c0 27.1 21.9 49 49 49s49-21.9 49-49C99 22.9 77.1 1 50 1zM54.5 65c-3.8 0-7.3-2-8.5-4.3 0 0-1.9 7.1-2.3 8.9 -0.8 3.2-3.1 7.3-4.6 9.8 -2 1.2-2.5-0.9-2.5-0.9 -0.3-2.9-0.6-7.5 0.1-10.7 0.7-2.9 4.4-18.5 4.4-18.5s-1.1-2.2-1.1-5.5c0-5.2 3-9 6.7-9 3.2 0 4.7 2.4 4.7 5.2 0 3.2-2 8-3.1 12.4C47.3 56 50 59 53.7 59c6.6 0 11.7-7 11.7-17.1 0-8.9-6.4-15.2-15.6-15.2C39.2 26.8 33 34.8 33 43c0 3.2 1.2 6.6 2.8 8.5 0.3 0.4 0.3 0.7 0.3 1.1 -0.3 1.2-0.9 3.7-1 4.2 -0.2 0.7-0.5 0.8-1.2 0.5 -4.7-2.2-7.6-9-7.6-14.4 0-11.7 8.5-22.5 24.6-22.5 12.9 0 23 9.2 23 21.5C73.8 54.6 65.7 65 54.5 65z"/></svg>
