<svg xmlns="http://www.w3.org/2000/svg" version="1.1" x="0" y="0" viewBox="0 0 100 100" enable-background="new 0 0 100 100" xml:space="preserve"><path class="twitter-path" fill="none" stroke="#000000" stroke-width="1" stroke-miterlimit="10" d="M50 1C22.9 1 1 22.9 1 50c0 27.1 21.9 49 49 49s49-21.9 49-49C99 22.9 77.1 1 50 1zM73.6 37.9c0 0.5 0 1 0 1.6 0 16.1-12.3 34.7-34.7 34.7 -6.9 0-13.3-2-18.7-5.5 1 0.1 1.9 0.2 2.9 0.2 5.7 0 11-1.9 15.1-5.2C33 63.5 28.5 60 27 55.2c0.7 0.1 1.5 0.2 2.3 0.2 1.1 0 2.2-0.1 3.2-0.4 -5.6-1.1-9.8-6-9.8-11.9 0-0.1 0-0.1 0-0.2 1.6 0.9 3.5 1.5 5.5 1.5 -3.3-2.2-5.4-5.9-5.4-10.1 0-2.2 0.6-4.3 1.6-6.1 6 7.4 15 12.2 25.1 12.7 -0.2-0.9-0.3-1.8-0.3-2.8 0-6.7 5.5-12.2 12.2-12.2 3.5 0 6.7 1.5 8.9 3.8 2.8-0.5 5.4-1.6 7.7-3 -0.9 2.8-2.8 5.2-5.4 6.7 2.5-0.3 4.8-0.9 7-1.9C78.1 34 76 36.2 73.6 37.9z"/></svg>
