<svg xmlns="http://www.w3.org/2000/svg" version="1.1" x="0" y="0" viewBox="0 0 100 100" enable-background="new 0 0 100 100" xml:space="preserve"><path class="vimeo-path" fill="none" stroke="#000000" stroke-miterlimit="10" d="M50 1C22.9 1 1 22.9 1 50s21.9 49 49 49 49-21.9 49-49S77.1 1 50 1zM80 36.1c-0.3 5.8-4.3 13.8-12.2 24C59.6 70.6 52.7 75.9 47 75.9c-3.5 0-6.5-3.2-8.9-9.7 -1.6-5.9-3.2-11.8-4.8-17.8 -1.8-6.5-3.7-9.7-5.8-9.7 -0.4 0-2 0.9-4.7 2.8L20 38c3-2.6 5.9-5.2 8.8-7.8 3.9-3.4 6.9-5.2 8.9-5.4 4.7-0.4 7.5 2.7 8.6 9.6 1.2 7.4 2 12 2.4 13.7 1.3 6.1 2.8 9.2 4.4 9.2 1.3 0 3.1-2 5.7-6 2.5-4 3.9-7 4-9.1 0.4-3.4-1-5.1-4-5.1 -1.4 0-2.9 0.3-4.4 1 2.9-9.7 8.6-14.3 16.9-14.1C77.4 24.2 80.3 28.2 80 36.1z"/></svg>