<svg xmlns="http://www.w3.org/2000/svg" version="1.1" x="0" y="0" viewBox="0 0 100 100" enable-background="new 0 0 100 100" xml:space="preserve"><polygon class="youtube-path" fill="none" stroke="#000000" stroke-miterlimit="10" points="43.8 57.8 60 49.4 43.8 40.9 "/><path class="youtube-path" fill="none" stroke="#000000" stroke-miterlimit="10" d="M50 1C22.9 1 1 22.9 1 50s21.9 49 49 49 49-21.9 49-49S77.1 1 50 1zM79.5 52.3c0 4.9-0.4 9.7-0.4 9.7s-0.3 4.1-2.1 6c-2.3 2.4-4.8 2.4-6 2.5 -8.4 0.6-21 0.6-21 0.6S34.3 71 29.5 70.5c-1.3-0.3-4.4-0.2-6.7-2.6 -1.8-1.8-2.5-6-2.5-6s-0.9-4.9-0.9-9.7v-4.6c0-4.9 0.9-9.6 0.9-9.6s0.8-4.1 2.6-5.9c2.3-2.4 4.8-2.3 6-2.4 8.4-0.6 21-0.3 21-0.3h0c0 0 12.5-0.3 20.9 0.3 1.2 0.1 3.7-0.1 5.9 2.2 1.8 1.8 2.3 6 2.3 6s0.3 4.9 0.3 9.7V52.3z"/></svg>